<mxfile host="app.diagrams.net" modified="2020-05-28T21:07:48.007Z" agent="5.0 (Windows NT 10.0; Win64; x64) AppleWebKit/537.36 (KHTML, like Gecko) Chrome/83.0.4103.61 Safari/537.36" etag="7d-IggHE9brOkNqbVcDb" version="13.1.5" type="github">
  <diagram id="TxC2RvV53c9lngaPghdg" name="Page-1">
    <mxGraphModel dx="2473" dy="1062" grid="1" gridSize="10" guides="1" tooltips="1" connect="1" arrows="1" fold="1" page="1" pageScale="1" pageWidth="827" pageHeight="1169" math="0" shadow="0">
      <root>
        <mxCell id="0" />
        <mxCell id="1" parent="0" />
        <mxCell id="1ylVQQ3sh8P-H1glT6XM-3" value="" style="edgeStyle=orthogonalEdgeStyle;rounded=0;orthogonalLoop=1;jettySize=auto;html=1;" parent="1" source="1ylVQQ3sh8P-H1glT6XM-1" target="1ylVQQ3sh8P-H1glT6XM-2" edge="1">
          <mxGeometry relative="1" as="geometry" />
        </mxCell>
        <mxCell id="1ylVQQ3sh8P-H1glT6XM-1" value="&lt;!--StartFragment--&gt;&lt;div style=&quot;color: rgb(171, 178, 191); background-color: rgb(40, 44, 52); font-family: Consolas, &amp;quot;Courier New&amp;quot;, monospace; font-weight: normal; font-size: 16px; line-height: 22px;&quot;&gt;&lt;div&gt;&lt;span style=&quot;color: #c678dd;&quot;&gt;if&lt;/span&gt;&lt;span style=&quot;color: #abb2bf;&quot;&gt;&amp;nbsp;((&lt;/span&gt;&lt;span style=&quot;color: #56b6c2;&quot;&gt;sizeof&lt;/span&gt;&lt;span style=&quot;color: #abb2bf;&quot;&gt;(&lt;/span&gt;&lt;span style=&quot;color: #e06c75;&quot;&gt;$aplicar&lt;/span&gt;&lt;span style=&quot;color: #abb2bf;&quot;&gt;)&lt;/span&gt;&lt;span style=&quot;color: #56b6c2;&quot;&gt;&amp;gt;&lt;/span&gt;&lt;span style=&quot;color: #d19a66;&quot;&gt;0&lt;/span&gt;&lt;span style=&quot;color: #abb2bf;&quot;&gt;)&amp;nbsp;&lt;/span&gt;&lt;span style=&quot;color: #56b6c2;&quot;&gt;and&lt;/span&gt;&lt;span style=&quot;color: #abb2bf;&quot;&gt;&amp;nbsp;(&lt;/span&gt;&lt;span style=&quot;color: #e06c75;&quot;&gt;$aplicar&lt;/span&gt;&lt;span style=&quot;color: #abb2bf;&quot;&gt;[&lt;/span&gt;&lt;span style=&quot;color: #d19a66;&quot;&gt;0&lt;/span&gt;&lt;span style=&quot;color: #abb2bf;&quot;&gt;]&lt;/span&gt;&lt;span style=&quot;color: #56b6c2;&quot;&gt;&amp;lt;&amp;gt;&lt;/span&gt;&lt;span style=&quot;color: #98c379;&quot;&gt;&quot;&quot;&lt;/span&gt;&lt;span style=&quot;color: #abb2bf;&quot;&gt;))&amp;nbsp;{&lt;/span&gt;&lt;/div&gt;&lt;/div&gt;&lt;!--EndFragment--&gt;" style="text;whiteSpace=wrap;html=1;fillColor=#f8cecc;strokeColor=#b85450;" parent="1" vertex="1">
          <mxGeometry x="120" y="180" width="480" height="40" as="geometry" />
        </mxCell>
        <mxCell id="1ylVQQ3sh8P-H1glT6XM-2" value="&lt;div style=&quot;color: rgb(171 , 178 , 191) ; background-color: rgb(40 , 44 , 52) ; font-family: &amp;#34;consolas&amp;#34; , &amp;#34;courier new&amp;#34; , monospace ; font-weight: normal ; font-size: 16px ; line-height: 22px&quot;&gt;&lt;div&gt;&lt;div style=&quot;color: rgb(171 , 178 , 191) ; background-color: rgb(40 , 44 , 52) ; font-family: &amp;#34;consolas&amp;#34; , &amp;#34;courier new&amp;#34; , monospace ; font-weight: normal ; font-size: 16px ; line-height: 22px&quot;&gt;&lt;div&gt;&lt;span style=&quot;color: #e06c75&quot;&gt;$aplica&lt;/span&gt;&lt;span style=&quot;color: #56b6c2&quot;&gt;=&lt;/span&gt;&lt;span style=&quot;color: #98c379&quot;&gt;&quot;si&quot;&lt;/span&gt;&lt;span style=&quot;color: #abb2bf&quot;&gt;;&lt;/span&gt;&lt;/div&gt;&lt;/div&gt;&lt;/div&gt;&lt;/div&gt;" style="text;whiteSpace=wrap;html=1;" parent="1" vertex="1">
          <mxGeometry x="140" y="260" width="120" height="40" as="geometry" />
        </mxCell>
        <mxCell id="1ylVQQ3sh8P-H1glT6XM-7" value="" style="edgeStyle=orthogonalEdgeStyle;rounded=0;orthogonalLoop=1;jettySize=auto;html=1;" parent="1" source="1ylVQQ3sh8P-H1glT6XM-4" target="1ylVQQ3sh8P-H1glT6XM-6" edge="1">
          <mxGeometry relative="1" as="geometry" />
        </mxCell>
        <mxCell id="1ylVQQ3sh8P-H1glT6XM-4" value="&lt;!--StartFragment--&gt;&lt;div style=&quot;color: rgb(171, 178, 191); background-color: rgb(40, 44, 52); font-family: Consolas, &amp;quot;Courier New&amp;quot;, monospace; font-weight: normal; font-size: 16px; line-height: 22px;&quot;&gt;&lt;div&gt;&lt;span style=&quot;color: #61afef;&quot;&gt;db_query&lt;/span&gt;&lt;span style=&quot;color: #abb2bf;&quot;&gt;(&lt;/span&gt;&lt;span style=&quot;color: #98c379;&quot;&gt;&quot;select&amp;nbsp;*&amp;nbsp;from&amp;nbsp;reglas&amp;nbsp;where&amp;nbsp;eidregla=&quot;&lt;/span&gt;&lt;span style=&quot;color: #abb2bf;&quot;&gt;.&lt;/span&gt;&lt;span style=&quot;color: #e06c75;&quot;&gt;$idregla&lt;/span&gt;&lt;span style=&quot;color: #abb2bf;&quot;&gt;.&lt;/span&gt;&lt;span style=&quot;color: #98c379;&quot;&gt;&quot;&amp;nbsp;and&amp;nbsp;idEmpresa&amp;nbsp;=&amp;nbsp;&#39;&quot;&lt;/span&gt;&lt;span style=&quot;color: #abb2bf;&quot;&gt;.&lt;/span&gt;&lt;span style=&quot;color: #e06c75;&quot;&gt;$_SESSION&lt;/span&gt;&lt;span style=&quot;color: #abb2bf;&quot;&gt;[&lt;/span&gt;&lt;span style=&quot;color: #98c379;&quot;&gt;&#39;sess_userData&#39;&lt;/span&gt;&lt;span style=&quot;color: #abb2bf;&quot;&gt;][&lt;/span&gt;&lt;span style=&quot;color: #98c379;&quot;&gt;&#39;empresa&#39;&lt;/span&gt;&lt;span style=&quot;color: #abb2bf;&quot;&gt;][&lt;/span&gt;&lt;span style=&quot;color: #98c379;&quot;&gt;&#39;idEmpresa&#39;&lt;/span&gt;&lt;span style=&quot;color: #abb2bf;&quot;&gt;]&lt;/span&gt;&lt;span style=&quot;color: #abb2bf;&quot;&gt;.&lt;/span&gt;&lt;span style=&quot;color: #98c379;&quot;&gt;&quot;&#39;&quot;&lt;/span&gt;&lt;span style=&quot;color: #abb2bf;&quot;&gt;);&lt;/span&gt;&lt;/div&gt;&lt;/div&gt;&lt;!--EndFragment--&gt;" style="text;whiteSpace=wrap;html=1;" parent="1" vertex="1">
          <mxGeometry x="110" y="310" width="550" height="60" as="geometry" />
        </mxCell>
        <mxCell id="1ylVQQ3sh8P-H1glT6XM-11" value="" style="edgeStyle=orthogonalEdgeStyle;rounded=0;orthogonalLoop=1;jettySize=auto;html=1;" parent="1" source="1ylVQQ3sh8P-H1glT6XM-6" target="1ylVQQ3sh8P-H1glT6XM-10" edge="1">
          <mxGeometry relative="1" as="geometry" />
        </mxCell>
        <mxCell id="1ylVQQ3sh8P-H1glT6XM-6" value="&lt;div style=&quot;color: rgb(171 , 178 , 191) ; background-color: rgb(40 , 44 , 52) ; font-family: &amp;#34;consolas&amp;#34; , &amp;#34;courier new&amp;#34; , monospace ; font-weight: normal ; font-size: 16px ; line-height: 22px&quot;&gt;&lt;div&gt;&lt;div style=&quot;color: rgb(171 , 178 , 191) ; background-color: rgb(40 , 44 , 52) ; font-family: &amp;#34;consolas&amp;#34; , &amp;#34;courier new&amp;#34; , monospace ; font-weight: normal ; font-size: 16px ; line-height: 22px&quot;&gt;&lt;div&gt;&lt;span style=&quot;color: #e06c75&quot;&gt;$masbajo&lt;/span&gt;&lt;span style=&quot;color: #56b6c2&quot;&gt;=&lt;/span&gt;&lt;span style=&quot;color: #e06c75&quot;&gt;$row&lt;/span&gt;&lt;span style=&quot;color: #abb2bf&quot;&gt;[&lt;/span&gt;&lt;span style=&quot;color: #98c379&quot;&gt;&quot;orden&quot;&lt;/span&gt;&lt;span style=&quot;color: #abb2bf&quot;&gt;];&lt;/span&gt;&lt;/div&gt;&lt;div&gt;&lt;span style=&quot;color: #abb2bf&quot;&gt;&lt;/span&gt;&lt;span style=&quot;color: #e06c75&quot;&gt;$miregla&lt;/span&gt;&lt;span style=&quot;color: #56b6c2&quot;&gt;=&lt;/span&gt;&lt;span style=&quot;color: #e06c75&quot;&gt;$idregla&lt;/span&gt;&lt;span style=&quot;color: #abb2bf&quot;&gt;;&lt;/span&gt;&lt;/div&gt;&lt;div&gt;&lt;div&gt;&lt;span style=&quot;color: #e06c75&quot;&gt;$tipo_cargo&lt;/span&gt;&lt;span style=&quot;color: #56b6c2&quot;&gt;=&lt;/span&gt;&lt;span style=&quot;color: #e06c75&quot;&gt;$row&lt;/span&gt;&lt;span style=&quot;color: #abb2bf&quot;&gt;[&lt;/span&gt;&lt;span style=&quot;color: #98c379&quot;&gt;&quot;tipo_cargo&quot;&lt;/span&gt;&lt;span style=&quot;color: #abb2bf&quot;&gt;];&lt;/span&gt;&lt;/div&gt;&lt;span style=&quot;color: #abb2bf&quot;&gt;&lt;/span&gt;&lt;/div&gt;&lt;/div&gt;&lt;/div&gt;&lt;/div&gt;" style="text;whiteSpace=wrap;html=1;" parent="1" vertex="1">
          <mxGeometry x="110" y="390" width="270" height="70" as="geometry" />
        </mxCell>
        <mxCell id="1ylVQQ3sh8P-H1glT6XM-13" value="" style="edgeStyle=orthogonalEdgeStyle;rounded=0;orthogonalLoop=1;jettySize=auto;html=1;" parent="1" source="1ylVQQ3sh8P-H1glT6XM-10" target="1ylVQQ3sh8P-H1glT6XM-12" edge="1">
          <mxGeometry relative="1" as="geometry" />
        </mxCell>
        <mxCell id="wRwia8m4Fj-E2qncx0wM-3" value="" style="edgeStyle=orthogonalEdgeStyle;rounded=0;orthogonalLoop=1;jettySize=auto;html=1;" parent="1" source="1ylVQQ3sh8P-H1glT6XM-10" target="1ylVQQ3sh8P-H1glT6XM-12" edge="1">
          <mxGeometry relative="1" as="geometry" />
        </mxCell>
        <mxCell id="wRwia8m4Fj-E2qncx0wM-5" value="" style="edgeStyle=orthogonalEdgeStyle;rounded=0;orthogonalLoop=1;jettySize=auto;html=1;" parent="1" source="1ylVQQ3sh8P-H1glT6XM-10" target="wRwia8m4Fj-E2qncx0wM-4" edge="1">
          <mxGeometry relative="1" as="geometry" />
        </mxCell>
        <mxCell id="wRwia8m4Fj-E2qncx0wM-7" value="" style="edgeStyle=orthogonalEdgeStyle;rounded=0;orthogonalLoop=1;jettySize=auto;html=1;" parent="1" source="1ylVQQ3sh8P-H1glT6XM-10" target="wRwia8m4Fj-E2qncx0wM-6" edge="1">
          <mxGeometry relative="1" as="geometry" />
        </mxCell>
        <mxCell id="1ylVQQ3sh8P-H1glT6XM-10" value="&lt;div style=&quot;color: rgb(171 , 178 , 191) ; background-color: rgb(40 , 44 , 52) ; font-family: &amp;#34;consolas&amp;#34; , &amp;#34;courier new&amp;#34; , monospace ; font-weight: normal ; font-size: 16px ; line-height: 22px&quot;&gt;&lt;div&gt;&lt;span style=&quot;color: #c678dd&quot;&gt;if&lt;/span&gt;&lt;span style=&quot;color: #abb2bf&quot;&gt;&amp;nbsp;(&lt;/span&gt;&lt;span style=&quot;color: #e06c75&quot;&gt;$tipo_cargo&lt;/span&gt;&lt;span style=&quot;color: #56b6c2&quot;&gt;&amp;lt;&lt;/span&gt;&lt;span style=&quot;color: #d19a66&quot;&gt;2&lt;/span&gt;&lt;span style=&quot;color: #abb2bf&quot;&gt;){&lt;/span&gt;&lt;/div&gt;&lt;/div&gt;" style="text;whiteSpace=wrap;html=1;" parent="1" vertex="1">
          <mxGeometry x="130" y="510" width="170" height="30" as="geometry" />
        </mxCell>
        <mxCell id="opEgY--enB1-h1R6FWiN-11" value="" style="edgeStyle=orthogonalEdgeStyle;rounded=0;orthogonalLoop=1;jettySize=auto;html=1;" edge="1" parent="1" source="wRwia8m4Fj-E2qncx0wM-6" target="opEgY--enB1-h1R6FWiN-10">
          <mxGeometry relative="1" as="geometry" />
        </mxCell>
        <mxCell id="wRwia8m4Fj-E2qncx0wM-6" value="&lt;div style=&quot;background-color: rgb(40 , 44 , 52) ; font-family: &amp;#34;consolas&amp;#34; , &amp;#34;courier new&amp;#34; , monospace ; font-weight: normal ; font-size: 16px ; line-height: 22px&quot;&gt;&lt;div&gt;&lt;span style=&quot;color: rgb(198 , 120 , 221)&quot;&gt;if&lt;/span&gt;&lt;span style=&quot;color: rgb(171 , 178 , 191)&quot;&gt;&amp;nbsp;(&lt;/span&gt;&lt;span style=&quot;color: rgb(224 , 108 , 117)&quot;&gt;$tipo_cargo&lt;/span&gt;&lt;font color=&quot;#56b6c2&quot;&gt;==&lt;/font&gt;&lt;font color=&quot;#d19a66&quot;&gt;1&lt;/font&gt;&lt;span style=&quot;color: rgb(171 , 178 , 191)&quot;&gt;){&lt;/span&gt;&lt;/div&gt;&lt;/div&gt;" style="text;whiteSpace=wrap;html=1;" parent="1" vertex="1">
          <mxGeometry x="-140" y="600" width="190" height="30" as="geometry" />
        </mxCell>
        <mxCell id="opEgY--enB1-h1R6FWiN-10" value="&lt;div style=&quot;background-color: rgb(40 , 44 , 52) ; font-family: &amp;#34;consolas&amp;#34; , &amp;#34;courier new&amp;#34; , monospace ; font-weight: normal ; font-size: 16px ; line-height: 22px&quot;&gt;&lt;div style=&quot;color: rgb(171 , 178 , 191) ; font-family: &amp;#34;consolas&amp;#34; , &amp;#34;courier new&amp;#34; , monospace ; line-height: 22px&quot;&gt;&lt;span style=&quot;color: #e06c75&quot;&gt;$mitipounidad&lt;/span&gt;&lt;span style=&quot;color: #56b6c2&quot;&gt;==&lt;/span&gt;&lt;span style=&quot;color: #d19a66&quot;&gt;0&lt;/span&gt;&lt;/div&gt;&lt;/div&gt;" style="text;whiteSpace=wrap;html=1;" vertex="1" parent="1">
          <mxGeometry x="-280" y="720" width="150" height="30" as="geometry" />
        </mxCell>
        <mxCell id="wRwia8m4Fj-E2qncx0wM-4" value="&lt;div style=&quot;color: rgb(171 , 178 , 191) ; background-color: rgb(40 , 44 , 52) ; font-family: &amp;#34;consolas&amp;#34; , &amp;#34;courier new&amp;#34; , monospace ; font-weight: normal ; font-size: 16px ; line-height: 22px&quot;&gt;&lt;div style=&quot;font-family: &amp;#34;consolas&amp;#34; , &amp;#34;courier new&amp;#34; , monospace ; line-height: 22px&quot;&gt;&lt;span style=&quot;color: #c678dd&quot;&gt;if&lt;/span&gt;&amp;nbsp;((&lt;span style=&quot;color: #e06c75&quot;&gt;$tipo_cargo&lt;/span&gt;&lt;span style=&quot;color: #56b6c2&quot;&gt;==&lt;/span&gt;&lt;span style=&quot;color: #d19a66&quot;&gt;0&lt;/span&gt;)&lt;/div&gt;&lt;/div&gt;" style="text;whiteSpace=wrap;html=1;" parent="1" vertex="1">
          <mxGeometry x="-360" y="600" width="170" height="30" as="geometry" />
        </mxCell>
        <mxCell id="opEgY--enB1-h1R6FWiN-1" value="&lt;div style=&quot;background-color: rgb(40 , 44 , 52) ; font-family: &amp;#34;consolas&amp;#34; , &amp;#34;courier new&amp;#34; , monospace ; font-weight: normal ; font-size: 16px ; line-height: 22px&quot;&gt;&lt;div style=&quot;font-family: &amp;#34;consolas&amp;#34; , &amp;#34;courier new&amp;#34; , monospace ; line-height: 22px&quot;&gt;&lt;div style=&quot;color: rgb(171 , 178 , 191) ; font-family: &amp;#34;consolas&amp;#34; , &amp;#34;courier new&amp;#34; , monospace ; line-height: 22px&quot;&gt;&lt;span style=&quot;color: #e06c75&quot;&gt;$diff&lt;/span&gt;&lt;span style=&quot;color: #56b6c2&quot;&gt;=floatval&lt;/span&gt;(&lt;span style=&quot;color: #e06c75&quot;&gt;$money&lt;/span&gt;)&lt;span style=&quot;color: #56b6c2&quot;&gt;*floatval&lt;/span&gt;(&lt;span style=&quot;color: #e06c75&quot;&gt;$miporc&lt;/span&gt;)&lt;span style=&quot;color: #56b6c2&quot;&gt;/&lt;/span&gt;&lt;span style=&quot;color: #d19a66&quot;&gt;100&lt;/span&gt;;&lt;/div&gt;&lt;div style=&quot;color: rgb(171 , 178 , 191) ; font-family: &amp;#34;consolas&amp;#34; , &amp;#34;courier new&amp;#34; , monospace ; line-height: 22px&quot;&gt;&lt;br&gt;&lt;/div&gt;&lt;/div&gt;&lt;div style=&quot;font-family: &amp;#34;consolas&amp;#34; , &amp;#34;courier new&amp;#34; , monospace ; line-height: 22px&quot;&gt;&lt;font color=&quot;#c678dd&quot;&gt;$mymoney = floatval($money) + $diff;&lt;/font&gt;&lt;/div&gt;&lt;div style=&quot;font-family: &amp;#34;consolas&amp;#34; , &amp;#34;courier new&amp;#34; , monospace ; line-height: 22px&quot;&gt;&lt;font color=&quot;#c678dd&quot;&gt;&lt;br&gt;&lt;/font&gt;&lt;/div&gt;&lt;div style=&quot;font-family: &amp;#34;consolas&amp;#34; , &amp;#34;courier new&amp;#34; , monospace ; line-height: 22px&quot;&gt;&lt;font color=&quot;#c678dd&quot;&gt;$porcent=&quot;+&quot;;&lt;/font&gt;&lt;/div&gt;&lt;div style=&quot;font-family: &amp;#34;consolas&amp;#34; , &amp;#34;courier new&amp;#34; , monospace ; line-height: 22px&quot;&gt;&lt;font color=&quot;#c678dd&quot;&gt;&lt;br&gt;&lt;/font&gt;&lt;/div&gt;&lt;div style=&quot;font-family: &amp;#34;consolas&amp;#34; , &amp;#34;courier new&amp;#34; , monospace ; line-height: 22px&quot;&gt;&lt;div style=&quot;color: rgb(171 , 178 , 191) ; font-family: &amp;#34;consolas&amp;#34; , &amp;#34;courier new&amp;#34; , monospace ; line-height: 22px&quot;&gt;&lt;span style=&quot;color: #e06c75&quot;&gt;$poramount&lt;/span&gt;&lt;span style=&quot;color: #56b6c2&quot;&gt;=&lt;/span&gt;&lt;span style=&quot;color: #e06c75&quot;&gt;$diff&lt;/span&gt;;&lt;/div&gt;&lt;/div&gt;&lt;/div&gt;" style="text;whiteSpace=wrap;html=1;" vertex="1" parent="1">
          <mxGeometry x="-1130" y="860" width="450" height="30" as="geometry" />
        </mxCell>
        <mxCell id="1ylVQQ3sh8P-H1glT6XM-12" value="&lt;div style=&quot;color: rgb(171 , 178 , 191) ; background-color: rgb(40 , 44 , 52) ; font-family: &amp;#34;consolas&amp;#34; , &amp;#34;courier new&amp;#34; , monospace ; font-weight: normal ; font-size: 16px ; line-height: 22px&quot;&gt;&lt;div style=&quot;color: rgb(171 , 178 , 191) ; background-color: rgb(40 , 44 , 52) ; font-family: &amp;#34;consolas&amp;#34; , &amp;#34;courier new&amp;#34; , monospace ; font-weight: normal ; font-size: 16px ; line-height: 22px&quot;&gt;&lt;div style=&quot;font-family: &amp;#34;consolas&amp;#34; , &amp;#34;courier new&amp;#34; , monospace ; line-height: 22px&quot;&gt;&lt;span style=&quot;color: #e06c75&quot;&gt;$def&lt;/span&gt;&lt;span style=&quot;color: #56b6c2&quot;&gt;=&lt;/span&gt;&lt;span style=&quot;color: #98c379&quot;&gt;&quot;si&quot;&lt;/span&gt;;&lt;/div&gt;&lt;div style=&quot;font-family: &amp;#34;consolas&amp;#34; , &amp;#34;courier new&amp;#34; , monospace ; line-height: 22px&quot;&gt;&lt;span style=&quot;color: #7f848e ; font-style: italic&quot;&gt;//Igual&amp;nbsp;queremos&amp;nbsp;aplicar&amp;nbsp;lo&amp;nbsp;de&amp;nbsp;la&amp;nbsp;agencia&lt;/span&gt;&lt;/div&gt;&lt;/div&gt;&lt;/div&gt;" style="text;whiteSpace=wrap;html=1;" parent="1" vertex="1">
          <mxGeometry x="45" y="650" width="305" height="100" as="geometry" />
        </mxCell>
        <mxCell id="1ylVQQ3sh8P-H1glT6XM-5" value="" style="endArrow=classic;html=1;" parent="1" source="1ylVQQ3sh8P-H1glT6XM-1" edge="1">
          <mxGeometry width="50" height="50" relative="1" as="geometry">
            <mxPoint x="390" y="340" as="sourcePoint" />
            <mxPoint x="480" y="300" as="targetPoint" />
          </mxGeometry>
        </mxCell>
        <mxCell id="1ylVQQ3sh8P-H1glT6XM-17" value="" style="edgeStyle=orthogonalEdgeStyle;rounded=0;orthogonalLoop=1;jettySize=auto;html=1;" parent="1" source="1ylVQQ3sh8P-H1glT6XM-14" target="1ylVQQ3sh8P-H1glT6XM-16" edge="1">
          <mxGeometry relative="1" as="geometry" />
        </mxCell>
        <mxCell id="1ylVQQ3sh8P-H1glT6XM-14" value="&lt;div style=&quot;color: rgb(171 , 178 , 191) ; background-color: rgb(40 , 44 , 52) ; font-family: &amp;#34;consolas&amp;#34; , &amp;#34;courier new&amp;#34; , monospace ; font-weight: normal ; font-size: 16px ; line-height: 22px&quot;&gt;&lt;div&gt;&lt;span style=&quot;color: #98c379&quot;&gt;Le&amp;nbsp;aplicamos&amp;nbsp;a&amp;nbsp;la&amp;nbsp;tarifa&amp;nbsp;&quot;&lt;/span&gt;&lt;span style=&quot;color: #abb2bf&quot;&gt;.&lt;/span&gt;&lt;span style=&quot;color: #e06c75&quot;&gt;$money&lt;/span&gt;&lt;span style=&quot;color: #abb2bf&quot;&gt;.&lt;/span&gt;&lt;span style=&quot;color: #98c379&quot;&gt;&quot;&amp;nbsp;un &lt;br&gt;&lt;/span&gt;&lt;/div&gt;&lt;/div&gt;" style="text;html=1;align=center;verticalAlign=middle;resizable=0;points=[];autosize=1;fillColor=#fff2cc;strokeColor=#d6b656;" parent="1" vertex="1">
          <mxGeometry x="414" y="570" width="350" height="30" as="geometry" />
        </mxCell>
        <mxCell id="wRwia8m4Fj-E2qncx0wM-2" value="" style="edgeStyle=orthogonalEdgeStyle;rounded=0;orthogonalLoop=1;jettySize=auto;html=1;" parent="1" source="1ylVQQ3sh8P-H1glT6XM-16" target="wRwia8m4Fj-E2qncx0wM-1" edge="1">
          <mxGeometry relative="1" as="geometry" />
        </mxCell>
        <mxCell id="1ylVQQ3sh8P-H1glT6XM-16" value="&lt;div style=&quot;color: rgb(171 , 178 , 191) ; background-color: rgb(40 , 44 , 52) ; font-family: &amp;#34;consolas&amp;#34; , &amp;#34;courier new&amp;#34; , monospace ; font-weight: normal ; font-size: 16px ; line-height: 22px&quot; align=&quot;left&quot;&gt;&lt;div&gt;&lt;span style=&quot;color: #c678dd&quot;&gt;if&lt;/span&gt;&lt;span style=&quot;color: #abb2bf&quot;&gt;&amp;nbsp;(&lt;/span&gt;&lt;span style=&quot;color: #e06c75&quot;&gt;$tipo_cargo&lt;/span&gt;&lt;span style=&quot;color: #56b6c2&quot;&gt;==&lt;/span&gt;&lt;span style=&quot;color: #d19a66&quot;&gt;0&lt;/span&gt;&lt;span style=&quot;color: #abb2bf&quot;&gt;)&amp;nbsp;{&lt;/span&gt;&lt;span style=&quot;color: #e06c75&quot;&gt;$milog&lt;/span&gt;&lt;span style=&quot;color: #abb2bf&quot;&gt;[&lt;/span&gt;&lt;span style=&quot;color: #e06c75&quot;&gt;$jk&lt;/span&gt;&lt;span style=&quot;color: #abb2bf&quot;&gt;]&lt;/span&gt;&lt;span style=&quot;color: #abb2bf&quot;&gt;.=&lt;/span&gt;&lt;span style=&quot;color: #98c379&quot;&gt;&quot;&amp;nbsp;mark-up&amp;nbsp;de&amp;nbsp;&quot;&lt;/span&gt;&lt;span style=&quot;color: #abb2bf&quot;&gt;;}&lt;/span&gt;&lt;/div&gt;&lt;div&gt;&lt;span style=&quot;color: #abb2bf&quot;&gt;&lt;/span&gt;&lt;span style=&quot;color: #abb2bf&quot;&gt;&lt;/span&gt;&lt;span style=&quot;color: #c678dd&quot;&gt;if&lt;/span&gt;&lt;span style=&quot;color: #abb2bf&quot;&gt;&amp;nbsp;(&lt;/span&gt;&lt;span style=&quot;color: #e06c75&quot;&gt;$tipo_cargo&lt;/span&gt;&lt;span style=&quot;color: #56b6c2&quot;&gt;==&lt;/span&gt;&lt;span style=&quot;color: #d19a66&quot;&gt;1&lt;/span&gt;&lt;span style=&quot;color: #abb2bf&quot;&gt;)&amp;nbsp;{&lt;/span&gt;&lt;span style=&quot;color: #e06c75&quot;&gt;$milog&lt;/span&gt;&lt;span style=&quot;color: #abb2bf&quot;&gt;[&lt;/span&gt;&lt;span style=&quot;color: #e06c75&quot;&gt;$jk&lt;/span&gt;&lt;span style=&quot;color: #abb2bf&quot;&gt;]&lt;/span&gt;&lt;span style=&quot;color: #abb2bf&quot;&gt;.=&lt;/span&gt;&lt;span style=&quot;color: #98c379&quot;&gt;&quot;&amp;nbsp;descuento&amp;nbsp;de&amp;nbsp;&quot;&lt;/span&gt;&lt;span style=&quot;color: #abb2bf&quot;&gt;;}&lt;/span&gt;&lt;/div&gt;&lt;div&gt;&lt;span style=&quot;color: #abb2bf&quot;&gt;&lt;/span&gt;&lt;span style=&quot;color: #abb2bf&quot;&gt;&lt;/span&gt;&lt;span style=&quot;color: #c678dd&quot;&gt;if&lt;/span&gt;&lt;span style=&quot;color: #abb2bf&quot;&gt;&amp;nbsp;(&lt;/span&gt;&lt;span style=&quot;color: #e06c75&quot;&gt;$tipo_cargo&lt;/span&gt;&lt;span style=&quot;color: #56b6c2&quot;&gt;==&lt;/span&gt;&lt;span style=&quot;color: #d19a66&quot;&gt;2&lt;/span&gt;&lt;span style=&quot;color: #abb2bf&quot;&gt;)&amp;nbsp;{&lt;/span&gt;&lt;span style=&quot;color: #e06c75&quot;&gt;$milog&lt;/span&gt;&lt;span style=&quot;color: #abb2bf&quot;&gt;[&lt;/span&gt;&lt;span style=&quot;color: #e06c75&quot;&gt;$jk&lt;/span&gt;&lt;span style=&quot;color: #abb2bf&quot;&gt;]&lt;/span&gt;&lt;span style=&quot;color: #abb2bf&quot;&gt;.=&lt;/span&gt;&lt;span style=&quot;color: #98c379&quot;&gt;&quot;&amp;nbsp;cargo&amp;nbsp;de&amp;nbsp;gestion&amp;nbsp;de&amp;nbsp;&quot;&lt;/span&gt;&lt;span style=&quot;color: #abb2bf&quot;&gt;;}&lt;/span&gt;&lt;/div&gt;&lt;/div&gt;" style="text;html=1;align=left;verticalAlign=middle;resizable=0;points=[];autosize=1;fillColor=#fff2cc;strokeColor=#d6b656;" parent="1" vertex="1">
          <mxGeometry x="430" y="630" width="530" height="70" as="geometry" />
        </mxCell>
        <mxCell id="wRwia8m4Fj-E2qncx0wM-1" value="&lt;div style=&quot;background-color: rgb(40 , 44 , 52) ; line-height: 22px&quot; align=&quot;left&quot;&gt;&lt;div&gt;&lt;font color=&quot;#c678dd&quot; face=&quot;consolas, courier new, monospace&quot;&gt;&lt;span style=&quot;font-size: 16px&quot;&gt;if (($tipo_cargo&amp;lt;2) and ($mitipounidad==0)) {&lt;/span&gt;&lt;/font&gt;&lt;/div&gt;&lt;div&gt;&lt;font color=&quot;#c678dd&quot; face=&quot;consolas, courier new, monospace&quot;&gt;&lt;span style=&quot;font-size: 16px&quot;&gt;&lt;span&gt; &lt;/span&gt;$milog[$jk].=$diff.&quot;%&quot;;&lt;/span&gt;&lt;/font&gt;&lt;/div&gt;&lt;div&gt;&lt;font color=&quot;#c678dd&quot; face=&quot;consolas, courier new, monospace&quot;&gt;&lt;span style=&quot;font-size: 16px&quot;&gt;}&lt;/span&gt;&lt;/font&gt;&lt;/div&gt;&lt;div&gt;&lt;font color=&quot;#c678dd&quot; face=&quot;consolas, courier new, monospace&quot;&gt;&lt;span style=&quot;font-size: 16px&quot;&gt;&lt;br&gt;&lt;/span&gt;&lt;/font&gt;&lt;/div&gt;&lt;div&gt;&lt;font color=&quot;#c678dd&quot; face=&quot;consolas, courier new, monospace&quot;&gt;&lt;span style=&quot;font-size: 16px&quot;&gt;if (($tipo_cargo&amp;lt;2) and ($mitipounidad==1)) {&lt;/span&gt;&lt;/font&gt;&lt;/div&gt;&lt;div&gt;&lt;font color=&quot;#c678dd&quot; face=&quot;consolas, courier new, monospace&quot;&gt;&lt;span style=&quot;font-size: 16px&quot;&gt;&lt;span&gt; &lt;/span&gt;$milog[$jk].=$mimoneda.&quot; &quot;.$miporc;&lt;/span&gt;&lt;/font&gt;&lt;/div&gt;&lt;div&gt;&lt;font color=&quot;#c678dd&quot; face=&quot;consolas, courier new, monospace&quot;&gt;&lt;span style=&quot;font-size: 16px&quot;&gt;}&lt;/span&gt;&lt;/font&gt;&lt;/div&gt;&lt;/div&gt;" style="text;html=1;align=left;verticalAlign=middle;resizable=0;points=[];autosize=1;fillColor=#fff2cc;strokeColor=#d6b656;" parent="1" vertex="1">
          <mxGeometry x="440" y="750" width="410" height="160" as="geometry" />
        </mxCell>
        <mxCell id="1ylVQQ3sh8P-H1glT6XM-15" value="" style="endArrow=classic;html=1;exitX=0.646;exitY=1;exitDx=0;exitDy=0;exitPerimeter=0;" parent="1" source="1ylVQQ3sh8P-H1glT6XM-1" target="1ylVQQ3sh8P-H1glT6XM-14" edge="1">
          <mxGeometry width="50" height="50" relative="1" as="geometry">
            <mxPoint x="390" y="490" as="sourcePoint" />
            <mxPoint x="440" y="440" as="targetPoint" />
          </mxGeometry>
        </mxCell>
        <mxCell id="opEgY--enB1-h1R6FWiN-3" value="&lt;div style=&quot;color: rgb(171 , 178 , 191) ; background-color: rgb(40 , 44 , 52) ; font-family: &amp;#34;consolas&amp;#34; , &amp;#34;courier new&amp;#34; , monospace ; font-size: 16px ; line-height: 22px&quot;&gt;&lt;span style=&quot;color: #e06c75&quot;&gt;$mitipounidad&lt;/span&gt;&lt;span style=&quot;color: #56b6c2&quot;&gt;==&lt;/span&gt;&lt;span style=&quot;color: #d19a66&quot;&gt;0&lt;/span&gt;&lt;/div&gt;" style="text;html=1;align=center;verticalAlign=middle;resizable=0;points=[];autosize=1;" vertex="1" parent="1">
          <mxGeometry x="-880" y="610" width="160" height="30" as="geometry" />
        </mxCell>
        <mxCell id="opEgY--enB1-h1R6FWiN-6" value="" style="edgeStyle=orthogonalEdgeStyle;rounded=0;orthogonalLoop=1;jettySize=auto;html=1;" edge="1" parent="1" source="opEgY--enB1-h1R6FWiN-4" target="opEgY--enB1-h1R6FWiN-5">
          <mxGeometry relative="1" as="geometry" />
        </mxCell>
        <mxCell id="opEgY--enB1-h1R6FWiN-4" value="&lt;div style=&quot;color: rgb(171 , 178 , 191) ; background-color: rgb(40 , 44 , 52) ; font-family: &amp;#34;consolas&amp;#34; , &amp;#34;courier new&amp;#34; , monospace ; font-size: 16px ; line-height: 22px&quot;&gt;&lt;span style=&quot;color: #e06c75&quot;&gt;$mitipounidad&lt;/span&gt;&lt;span style=&quot;color: #56b6c2&quot;&gt;==&lt;/span&gt;&lt;span style=&quot;color: #d19a66&quot;&gt;1&lt;/span&gt;)&lt;/div&gt;" style="text;html=1;align=center;verticalAlign=middle;resizable=0;points=[];autosize=1;" vertex="1" parent="1">
          <mxGeometry x="-680" y="700" width="160" height="30" as="geometry" />
        </mxCell>
        <mxCell id="opEgY--enB1-h1R6FWiN-5" value="&lt;div style=&quot;color: rgb(171 , 178 , 191) ; background-color: rgb(40 , 44 , 52) ; font-family: &amp;quot;consolas&amp;quot; , &amp;quot;courier new&amp;quot; , monospace ; font-size: 16px ; line-height: 22px&quot;&gt;&lt;div style=&quot;font-family: &amp;quot;consolas&amp;quot; , &amp;quot;courier new&amp;quot; , monospace ; line-height: 22px&quot;&gt;&lt;span style=&quot;color: #e06c75&quot;&gt;$mimoney&lt;/span&gt;&lt;span style=&quot;color: #56b6c2&quot;&gt;=floatval&lt;/span&gt;(&lt;span style=&quot;color: #e06c75&quot;&gt;$money&lt;/span&gt;)&lt;span style=&quot;color: #56b6c2&quot;&gt;+&lt;/span&gt;&lt;span style=&quot;color: #e06c75&quot;&gt;$miporc&lt;/span&gt;;&lt;/div&gt;&lt;div style=&quot;font-family: &amp;quot;consolas&amp;quot; , &amp;quot;courier new&amp;quot; , monospace ; line-height: 22px&quot;&gt;&lt;span style=&quot;color: rgb(224 , 108 , 117)&quot;&gt;&lt;br&gt;&lt;/span&gt;&lt;/div&gt;&lt;div style=&quot;font-family: &amp;quot;consolas&amp;quot; , &amp;quot;courier new&amp;quot; , monospace ; line-height: 22px&quot;&gt;&lt;span style=&quot;color: rgb(224 , 108 , 117)&quot;&gt;$porcent&lt;/span&gt;&lt;span style=&quot;color: rgb(86 , 182 , 194)&quot;&gt;=&lt;/span&gt;&lt;span style=&quot;color: rgb(152 , 195 , 121)&quot;&gt;&quot;+&quot;&lt;/span&gt;;&lt;/div&gt;&lt;div style=&quot;font-family: &amp;quot;consolas&amp;quot; , &amp;quot;courier new&amp;quot; , monospace ; line-height: 22px&quot;&gt;&lt;span style=&quot;color: rgb(224 , 108 , 117)&quot;&gt;&lt;br&gt;&lt;/span&gt;&lt;/div&gt;&lt;div style=&quot;font-family: &amp;quot;consolas&amp;quot; , &amp;quot;courier new&amp;quot; , monospace ; line-height: 22px&quot;&gt;&lt;span style=&quot;color: rgb(224 , 108 , 117)&quot;&gt;$poramount&lt;/span&gt;&lt;span style=&quot;color: rgb(86 , 182 , 194)&quot;&gt;=&lt;/span&gt;&lt;span style=&quot;color: rgb(224 , 108 , 117)&quot;&gt;$miporc&lt;/span&gt;;&lt;/div&gt;&lt;/div&gt;" style="text;html=1;align=left;verticalAlign=middle;resizable=0;points=[];autosize=1;" vertex="1" parent="1">
          <mxGeometry x="-700" y="870" width="310" height="110" as="geometry" />
        </mxCell>
        <mxCell id="opEgY--enB1-h1R6FWiN-9" value="" style="endArrow=classic;html=1;exitX=0.5;exitY=1;exitDx=0;exitDy=0;" edge="1" parent="1" source="wRwia8m4Fj-E2qncx0wM-4" target="opEgY--enB1-h1R6FWiN-4">
          <mxGeometry width="50" height="50" relative="1" as="geometry">
            <mxPoint x="-410" y="830" as="sourcePoint" />
            <mxPoint x="-360" y="780" as="targetPoint" />
          </mxGeometry>
        </mxCell>
        <mxCell id="opEgY--enB1-h1R6FWiN-19" value="" style="edgeStyle=orthogonalEdgeStyle;rounded=0;orthogonalLoop=1;jettySize=auto;html=1;" edge="1" parent="1" source="opEgY--enB1-h1R6FWiN-12" target="opEgY--enB1-h1R6FWiN-18">
          <mxGeometry relative="1" as="geometry" />
        </mxCell>
        <mxCell id="opEgY--enB1-h1R6FWiN-12" value="&lt;div style=&quot;background-color: rgb(40 , 44 , 52) ; font-family: &amp;#34;consolas&amp;#34; , &amp;#34;courier new&amp;#34; , monospace ; font-size: 16px ; line-height: 22px&quot;&gt;&lt;span style=&quot;color: rgb(224 , 108 , 117)&quot;&gt;$mitipounidad&lt;/span&gt;&lt;span style=&quot;color: rgb(86 , 182 , 194)&quot;&gt;==&lt;/span&gt;&lt;font color=&quot;#d19a66&quot;&gt;1&lt;/font&gt;&lt;/div&gt;" style="text;html=1;align=center;verticalAlign=middle;resizable=0;points=[];autosize=1;" vertex="1" parent="1">
          <mxGeometry x="-80" y="720" width="160" height="30" as="geometry" />
        </mxCell>
        <mxCell id="opEgY--enB1-h1R6FWiN-18" value="&lt;div style=&quot;background-color: rgb(40 , 44 , 52) ; font-family: &amp;quot;consolas&amp;quot; , &amp;quot;courier new&amp;quot; , monospace ; font-size: 16px ; line-height: 22px&quot;&gt;&lt;div style=&quot;color: rgb(171 , 178 , 191) ; font-family: &amp;quot;consolas&amp;quot; , &amp;quot;courier new&amp;quot; , monospace ; line-height: 22px&quot;&gt;&lt;span style=&quot;color: #e06c75&quot;&gt;$mimoney&lt;/span&gt;&lt;span style=&quot;color: #56b6c2&quot;&gt;=floatval&lt;/span&gt;(&lt;span style=&quot;color: #e06c75&quot;&gt;$money&lt;/span&gt;)&lt;span style=&quot;color: #56b6c2&quot;&gt;-&lt;/span&gt;&lt;span style=&quot;color: #e06c75&quot;&gt;$miporc&lt;/span&gt;;&lt;/div&gt;&lt;div style=&quot;color: rgb(171 , 178 , 191) ; font-family: &amp;quot;consolas&amp;quot; , &amp;quot;courier new&amp;quot; , monospace ; line-height: 22px&quot;&gt;&lt;span style=&quot;color: #e06c75&quot;&gt;&lt;br&gt;&lt;/span&gt;&lt;/div&gt;&lt;div style=&quot;color: rgb(171 , 178 , 191) ; font-family: &amp;quot;consolas&amp;quot; , &amp;quot;courier new&amp;quot; , monospace ; line-height: 22px&quot;&gt;&lt;span style=&quot;color: #e06c75&quot;&gt;$porcent&lt;/span&gt;&lt;span style=&quot;color: #56b6c2&quot;&gt;=&lt;/span&gt;&lt;span style=&quot;color: #98c379&quot;&gt;&quot;-&quot;&lt;/span&gt;;&lt;/div&gt;&lt;div style=&quot;color: rgb(171 , 178 , 191) ; font-family: &amp;quot;consolas&amp;quot; , &amp;quot;courier new&amp;quot; , monospace ; line-height: 22px&quot;&gt;&lt;span style=&quot;color: #e06c75&quot;&gt;&lt;br&gt;&lt;/span&gt;&lt;/div&gt;&lt;div style=&quot;color: rgb(171 , 178 , 191) ; font-family: &amp;quot;consolas&amp;quot; , &amp;quot;courier new&amp;quot; , monospace ; line-height: 22px&quot;&gt;&lt;span style=&quot;color: #e06c75&quot;&gt;$poramount&lt;/span&gt;&lt;span style=&quot;color: #56b6c2&quot;&gt;=&lt;/span&gt;&lt;span style=&quot;color: #e06c75&quot;&gt;$miporc&lt;/span&gt;;&lt;/div&gt;&lt;/div&gt;" style="text;html=1;align=left;verticalAlign=middle;resizable=0;points=[];autosize=1;" vertex="1" parent="1">
          <mxGeometry x="45" y="850" width="310" height="110" as="geometry" />
        </mxCell>
        <mxCell id="opEgY--enB1-h1R6FWiN-13" value="" style="endArrow=classic;html=1;exitX=0.711;exitY=0.989;exitDx=0;exitDy=0;exitPerimeter=0;" edge="1" parent="1" source="wRwia8m4Fj-E2qncx0wM-6" target="opEgY--enB1-h1R6FWiN-12">
          <mxGeometry width="50" height="50" relative="1" as="geometry">
            <mxPoint x="20" y="830" as="sourcePoint" />
            <mxPoint x="70" y="780" as="targetPoint" />
          </mxGeometry>
        </mxCell>
        <mxCell id="opEgY--enB1-h1R6FWiN-14" value="&lt;div style=&quot;color: rgb(171 , 178 , 191) ; background-color: rgb(40 , 44 , 52) ; font-family: &amp;#34;consolas&amp;#34; , &amp;#34;courier new&amp;#34; , monospace ; font-size: 16px ; line-height: 22px&quot;&gt;&lt;div style=&quot;font-family: &amp;#34;consolas&amp;#34; , &amp;#34;courier new&amp;#34; , monospace ; line-height: 22px&quot;&gt;&lt;span style=&quot;color: #e06c75&quot;&gt;$diff&lt;/span&gt;&lt;span style=&quot;color: #56b6c2&quot;&gt;=floatval&lt;/span&gt;(&lt;span style=&quot;color: #e06c75&quot;&gt;$money&lt;/span&gt;)&lt;span style=&quot;color: #56b6c2&quot;&gt;*floatval&lt;/span&gt;(&lt;span style=&quot;color: #e06c75&quot;&gt;$miporc&lt;/span&gt;)&lt;span style=&quot;color: #56b6c2&quot;&gt;/&lt;/span&gt;&lt;span style=&quot;color: #d19a66&quot;&gt;100&lt;/span&gt;;&lt;/div&gt;&lt;/div&gt;&lt;div style=&quot;color: rgb(171 , 178 , 191) ; background-color: rgb(40 , 44 , 52) ; font-family: &amp;#34;consolas&amp;#34; , &amp;#34;courier new&amp;#34; , monospace ; font-size: 16px ; line-height: 22px&quot;&gt;&lt;span style=&quot;color: #e06c75&quot;&gt;&lt;br&gt;&lt;/span&gt;&lt;/div&gt;&lt;div style=&quot;color: rgb(171 , 178 , 191) ; background-color: rgb(40 , 44 , 52) ; font-family: &amp;#34;consolas&amp;#34; , &amp;#34;courier new&amp;#34; , monospace ; font-size: 16px ; line-height: 22px&quot;&gt;&lt;span style=&quot;color: #e06c75&quot;&gt;$mimoney&lt;/span&gt;&lt;span style=&quot;color: #56b6c2&quot;&gt;=floatval&lt;/span&gt;(&lt;span style=&quot;color: #e06c75&quot;&gt;$money&lt;/span&gt;)&lt;span style=&quot;color: #56b6c2&quot;&gt;-&lt;/span&gt;&lt;span style=&quot;color: #e06c75&quot;&gt;$diff&lt;/span&gt;;&lt;/div&gt;&lt;div style=&quot;color: rgb(171 , 178 , 191) ; background-color: rgb(40 , 44 , 52) ; font-family: &amp;#34;consolas&amp;#34; , &amp;#34;courier new&amp;#34; , monospace ; font-size: 16px ; line-height: 22px&quot;&gt;&lt;span style=&quot;color: #e06c75&quot;&gt;&lt;br&gt;&lt;/span&gt;&lt;/div&gt;&lt;div style=&quot;color: rgb(171 , 178 , 191) ; background-color: rgb(40 , 44 , 52) ; font-family: &amp;#34;consolas&amp;#34; , &amp;#34;courier new&amp;#34; , monospace ; font-size: 16px ; line-height: 22px&quot;&gt;&lt;span style=&quot;color: #e06c75&quot;&gt;$porcent&lt;/span&gt;&lt;span style=&quot;color: #56b6c2&quot;&gt;=&lt;/span&gt;&lt;span style=&quot;color: #98c379&quot;&gt;&quot;-&quot;&lt;/span&gt;;&lt;/div&gt;&lt;div style=&quot;color: rgb(171 , 178 , 191) ; background-color: rgb(40 , 44 , 52) ; font-family: &amp;#34;consolas&amp;#34; , &amp;#34;courier new&amp;#34; , monospace ; font-size: 16px ; line-height: 22px&quot;&gt;&lt;span style=&quot;color: #e06c75&quot;&gt;&lt;br&gt;&lt;/span&gt;&lt;/div&gt;&lt;div style=&quot;color: rgb(171 , 178 , 191) ; background-color: rgb(40 , 44 , 52) ; font-family: &amp;#34;consolas&amp;#34; , &amp;#34;courier new&amp;#34; , monospace ; font-size: 16px ; line-height: 22px&quot;&gt;&lt;span style=&quot;color: #e06c75&quot;&gt;$poramount&lt;/span&gt;&lt;span style=&quot;color: #56b6c2&quot;&gt;=&lt;/span&gt;&lt;span style=&quot;color: #e06c75&quot;&gt;$diff&lt;/span&gt;;&lt;/div&gt;" style="text;html=1;align=left;verticalAlign=middle;resizable=0;points=[];autosize=1;" vertex="1" parent="1">
          <mxGeometry x="-380" y="850" width="410" height="150" as="geometry" />
        </mxCell>
        <mxCell id="opEgY--enB1-h1R6FWiN-15" value="" style="endArrow=classic;html=1;exitX=0.429;exitY=0.989;exitDx=0;exitDy=0;exitPerimeter=0;entryX=0.099;entryY=-0.027;entryDx=0;entryDy=0;entryPerimeter=0;" edge="1" parent="1" source="opEgY--enB1-h1R6FWiN-10" target="opEgY--enB1-h1R6FWiN-14">
          <mxGeometry width="50" height="50" relative="1" as="geometry">
            <mxPoint x="-10" y="830" as="sourcePoint" />
            <mxPoint x="40" y="780" as="targetPoint" />
          </mxGeometry>
        </mxCell>
        <mxCell id="opEgY--enB1-h1R6FWiN-16" value="" style="endArrow=none;html=1;entryX=0;entryY=0.5;entryDx=0;entryDy=0;" edge="1" parent="1" source="opEgY--enB1-h1R6FWiN-3" target="wRwia8m4Fj-E2qncx0wM-4">
          <mxGeometry width="50" height="50" relative="1" as="geometry">
            <mxPoint x="-520" y="830" as="sourcePoint" />
            <mxPoint x="-470" y="780" as="targetPoint" />
          </mxGeometry>
        </mxCell>
        <mxCell id="opEgY--enB1-h1R6FWiN-17" value="" style="endArrow=classic;html=1;exitX=0.41;exitY=1.011;exitDx=0;exitDy=0;exitPerimeter=0;entryX=0.421;entryY=-0.011;entryDx=0;entryDy=0;entryPerimeter=0;" edge="1" parent="1" source="opEgY--enB1-h1R6FWiN-3" target="opEgY--enB1-h1R6FWiN-1">
          <mxGeometry width="50" height="50" relative="1" as="geometry">
            <mxPoint x="-520" y="830" as="sourcePoint" />
            <mxPoint x="-470" y="780" as="targetPoint" />
          </mxGeometry>
        </mxCell>
        <mxCell id="opEgY--enB1-h1R6FWiN-20" value="&lt;div style=&quot;line-height: 22px&quot;&gt;&lt;div style=&quot;color: rgb(171 , 178 , 191) ; background-color: rgb(40 , 44 , 52) ; font-family: &amp;#34;consolas&amp;#34; , &amp;#34;courier new&amp;#34; , monospace ; font-size: 16px ; line-height: 22px&quot;&gt;&lt;div&gt;&lt;span style=&quot;color: #e06c75&quot;&gt;$mitipo&lt;/span&gt;&lt;span style=&quot;color: #56b6c2&quot;&gt;=&lt;/span&gt;&lt;span style=&quot;color: #e06c75&quot;&gt;$tipo_cargo&lt;/span&gt;;&lt;span style=&quot;color: #7f848e ; font-style: italic&quot;&gt;//0=markup,&amp;nbsp;1=descuento&lt;/span&gt;&lt;/div&gt;&lt;div&gt;&lt;span style=&quot;color: #e06c75&quot;&gt;$mitipounidad&lt;/span&gt;&lt;span style=&quot;color: #56b6c2&quot;&gt;=&lt;/span&gt;&lt;span style=&quot;color: #e06c75&quot;&gt;$row&lt;/span&gt;[&lt;span style=&quot;color: #98c379&quot;&gt;&quot;tipo_unidad&quot;&lt;/span&gt;];&lt;span style=&quot;color: #7f848e ; font-style: italic&quot;&gt;//0=porcentaje,&amp;nbsp;1=fijo&lt;/span&gt;&lt;/div&gt;&lt;div&gt;&lt;span style=&quot;color: #e06c75&quot;&gt;$mimoneda&lt;/span&gt;&lt;span style=&quot;color: #56b6c2&quot;&gt;=&lt;/span&gt;&lt;span style=&quot;color: #e06c75&quot;&gt;$row&lt;/span&gt;[&lt;span style=&quot;color: #98c379&quot;&gt;&quot;moneda&quot;&lt;/span&gt;];&lt;/div&gt;&lt;div&gt;&lt;span style=&quot;color: #7f848e ; font-style: italic&quot;&gt;//$mifijo=$row[&quot;cantidad&quot;];&lt;/span&gt;&lt;/div&gt;&lt;div&gt;&lt;span style=&quot;color: #e06c75&quot;&gt;$miporc&lt;/span&gt;&lt;span style=&quot;color: #56b6c2&quot;&gt;=&lt;/span&gt;&lt;span style=&quot;color: #e06c75&quot;&gt;$row&lt;/span&gt;[&lt;span style=&quot;color: #98c379&quot;&gt;&quot;cantidad&quot;&lt;/span&gt;];&lt;/div&gt;&lt;/div&gt;&lt;/div&gt;" style="text;html=1;align=left;verticalAlign=middle;resizable=0;points=[];autosize=1;" vertex="1" parent="1">
          <mxGeometry x="-1000" y="455" width="510" height="110" as="geometry" />
        </mxCell>
        <mxCell id="opEgY--enB1-h1R6FWiN-21" value="EL SERVICE FEE ES LO MISMO, PERO SOLO LOGEA&amp;nbsp;" style="text;html=1;align=center;verticalAlign=middle;resizable=0;points=[];autosize=1;fillColor=#fff2cc;strokeColor=#d6b656;" vertex="1" parent="1">
          <mxGeometry x="-390" y="310" width="320" height="20" as="geometry" />
        </mxCell>
      </root>
    </mxGraphModel>
  </diagram>
</mxfile>
